HIERARCHY
ROOT Hips
{
    OFFSET 0.0 0.0 0.0
    CHANNELS 6 Xposition Yposition Zposition Zrotation Xrotation Yrotation
    JOINT LeftHipJoint
    {
        OFFSET 0.1 0.0 0.0
        CHANNELS 3 Zrotation Xrotation Yrotation
        JOINT LeftUpLeg
        {
            OFFSET 122.30425893732027 0.0 0.0
            CHANNELS 3 Zrotation Xrotation Yrotation
            JOINT LeftLeg
            {
                OFFSET 0.0 0.0 -405.81743959486437
                CHANNELS 3 Zrotation Xrotation Yrotation
                JOINT LeftFoot
                {
                    OFFSET 0.0 0.0 -372.0357702793724
                    CHANNELS 3 Zrotation Xrotation Yrotation
                    End Site
                    {
                        OFFSET 0.0 -0.1 0.0
                    }
                }
            }
        }
    }
    JOINT LowerBack
    {
        OFFSET 0.0 0.0 0.1
        CHANNELS 3 Zrotation Xrotation Yrotation
        JOINT Spine
        {
            OFFSET 0.0 0.0 216.43112289693318
            CHANNELS 3 Zrotation Xrotation Yrotation
            JOINT Spine1
            {
                OFFSET 0.0 0.0 252.04013187033044
                CHANNELS 3 Zrotation Xrotation Yrotation
                JOINT LeftShoulder
                {
                    OFFSET 0.1 0.0 0.0
                    CHANNELS 3 Zrotation Xrotation Yrotation
                    JOINT LeftArm
                    {
                        OFFSET 142.40510853488502 0.0 0.0
                        CHANNELS 3 Zrotation Xrotation Yrotation
                        JOINT LeftForeArm
                        {
                            OFFSET 258.6255656787498 0.0 0.0
                            CHANNELS 3 Zrotation Xrotation Yrotation
                            JOINT LeftHand
                            {
                                OFFSET 231.66927789838928 0.0 0.0
                                CHANNELS 3 Zrotation Xrotation Yrotation
                                End Site
                                {
                                    OFFSET 0.1 0.0 0.0
                                }
                            }
                        }
                    }
                }
                JOINT Neck
                {
                    OFFSET 0.0 0.0 0.1
                    CHANNELS 3 Zrotation Xrotation Yrotation
                    JOINT Neck1
                    {
                        OFFSET 0.0 0.0 107.46675933699034
                        CHANNELS 3 Zrotation Xrotation Yrotation
                        End Site
                        {
                            OFFSET 0.0 0.0 115.2386314160405
                        }
                    }
                }
                JOINT RightShoulder
                {
                    OFFSET -0.1 0.0 0.0
                    CHANNELS 3 Zrotation Xrotation Yrotation
                    JOINT RightArm
                    {
                        OFFSET -142.40510853488502 0.0 0.0
                        CHANNELS 3 Zrotation Xrotation Yrotation
                        JOINT RightForeArm
                        {
                            OFFSET -258.6255656787498 0.0 0.0
                            CHANNELS 3 Zrotation Xrotation Yrotation
                            JOINT RightHand
                            {
                                OFFSET -231.66927789838928 0.0 0.0
                                CHANNELS 3 Zrotation Xrotation Yrotation
                                End Site
                                {
                                    OFFSET -0.1 0.0 0.0
                                }
                            }
                        }
                    }
                }
            }
        }
    }
    JOINT RightHipJoint
    {
        OFFSET -0.1 0.0 0.0
        CHANNELS 3 Zrotation Xrotation Yrotation
        JOINT RightUpLeg
        {
            OFFSET -122.30425893732027 0.0 0.0
            CHANNELS 3 Zrotation Xrotation Yrotation
            JOINT RightLeg
            {
                OFFSET 0.0 0.0 -405.81743959486437
                CHANNELS 3 Zrotation Xrotation Yrotation
                JOINT RightFoot
                {
                    OFFSET 0.0 0.0 -372.0357702793724
                    CHANNELS 3 Zrotation Xrotation Yrotation
                    End Site
                    {
                        OFFSET 0.0 -0.1 0.0
                    }
                }
            }
        }
    }
}
MOTION
Frames: 4
Frame Time: 0.03333333333333333
0.0 0.0 803.8828322595147 25.6420098232219 2.381858426646484 4.8124163906880435 0.0 0.0 1.987846675914698e-16 -1.1394939747427568 -17.748500040828958 0.7318736495609329 1.7489971066798569 21.334607350013073 -0.6502933029279495 0.0 0.0 0.0 0.0 0.0 1.987846675914698e-16 0.027298947721923573 0.43887139619576815 -2.7440775807583386 1.6768657734510042 1.0229048681392943e-16 1.973089871095163e-16 0.0 0.0 0.0 -34.24871945661459 9.00298418699317 75.97352610687497 -29.536444973503922 1.6390865940948143e-15 2.0941198182982877e-17 0.0 0.0 -1.1927080055488188e-15 0.0 0.0 0.0 -1.9498127340494864 -4.6708576673222595 -0.09809267770106486 0.0 0.0 0.0 24.404681039554852 6.181508600528945 -74.85811297951288 31.67742696242414 9.591881621138781e-15 1.0503064724243582e-14 0.0 0.0 0.0 0.0 0.0 1.987846675914698e-16 -1.107343011557942 -17.24100568705141 0.5822808215752541 2.072677115364365 25.633854162998812 1.873598369013447 0.0 0.0 -3.975693351829396e-16
0.0 0.0 803.8828322595147 25.644899961277527 2.261716980958361 4.790690084059969 0.0 0.0 -4.969616689786745e-17 -1.1384406741900133 -17.554997151079302 0.7616407217518089 1.7888073210037267 21.485341762224053 -0.7226199130992761 0.0 0.0 1.987846675914698e-16 0.0 0.0 -4.969616689786745e-17 0.02486675240583609 0.3954820719581686 -2.7028285561220518 1.7228709273852154 2.8021174861828104e-16 -1.1970560916652115e-15 0.0 0.0 0.0 -33.69448140415313 9.797171506648334 76.2952408375586 -29.827129532408083 -2.048304480556915e-15 1.5116101290744428e-15 0.0 0.0 -8.150171371250262e-15 0.0 0.0 0.0 -1.9762091819294194 -4.394991299781846 -0.09226052064266059 0.0 0.0 0.0 24.384871709394037 7.061753734757548 -75.3464302980431 32.42091066943727 -8.87903796234421e-16 -3.0541046037115365e-15 0.0 0.0 1.5902773407317584e-15 0.0 0.0 -4.969616689786745e-17 -1.105657479573205 -17.041918774053865 0.6037925790634493 2.1312764755058358 25.959377584772994 1.9491559089857105 0.0 0.0 0.0
0.0 0.0 803.8828322595147 25.61576860394845 2.077674732864365 4.822206637239234 -3.1805546814635168e-15 -3.034560579909484e-32 1.0933156717530838e-15 -1.1553233174422577 -17.4661983387005 0.7262454611458049 1.8437364247778387 21.9096929163794 -0.8076276081570102 0.0 0.0 0.0 -3.1805546814635168e-15 -3.034560579909484e-32 1.0933156717530838e-15 0.022676714946688846 0.35345698051688934 -2.7086885928203275 1.6874441689024628 -4.106983745830999e-16 -8.885797312560028e-16 0.0 0.0 0.0 -33.44292440078144 10.986744335864895 76.86700147103141 -30.133580569671246 5.964909153701238e-15 -9.922494941881778e-15 -2.4828222926532145e-32 -1.5902773407317584e-15 -1.7890620083232284e-15 0.0 0.0 0.0 -1.9906184943569212 -4.146276240630141 -0.05822047769360277 0.0 0.0 0.0 24.208074939630645 8.359688532912674 -76.17655997899777 33.0231605778393 -1.5790785241633417e-15 1.705486515297413e-14 0.0 0.0 -1.5902773407317584e-15 -3.1805546814635168e-15 -3.034560579909484e-32 1.0933156717530838e-15 -1.1141303096728035 -16.84128490413772 0.4263883125466122 2.1087132501353993 26.271939573255043 2.183889912619287 0.0 0.0 -1.9878466759146976e-15
0.0 0.0 803.8828322595147 25.644676795128355 1.9538619453914785 4.733743308752381 0.0 0.0 -3.2302508483613845e-16 -1.1620155745002305 -17.548335534008466 0.9649159716279649 1.9844754113942737 22.336876762052405 -1.0655129947597788 0.0 0.0 5.963540027744094e-16 0.0 0.0 -3.2302508483613845e-16 0.016715049339500965 0.26030359144979065 -2.6725270028998604 1.5707173805917798 1.0278884054444821e-16 2.470951545162475e-16 0.0 0.0 -1.987846675914698e-16 -33.186190265717435 12.03863896947399 77.59094983618239 -29.86481807450556 -6.863308833911649e-15 -5.122057247166576e-15 0.0 0.0 -1.987846675914698e-15 0.0 0.0 -1.987846675914698e-16 -1.8303556675537636 -4.1029987516354804 0.10494516349543458 0.0 0.0 -1.987846675914698e-16 23.66259754256315 9.650417169149812 -76.83386103310643 33.60632799201135 -1.5856823257754693e-14 -8.50122666379822e-15 0.0 0.0 -1.5902773407317584e-15 0.0 0.0 -3.2302508483613845e-16 -1.1114538515964247 -16.7870466928044 0.4464508523744608 2.1786154652023972 26.898624708714806 2.1955997515422325 0.0 0.0 0.0
